<svg xmlns="http://www.w3.org/2000/svg" viewBox="0 0 800 800">
  <!-- Graduation cap -->
  <path d="M400 150 L200 280 L400 410 L600 280 Z" fill="#001a57"/>
  <path d="M410 160 L405 150 L205 280 L400 410 L595 280 L395 150 Z" fill="#001a57"/>
  <path d="M400 150 L405 155 L600 285 L600 280 L400 150 Z" fill="#001a57"/>
  <path d="M400 150 L395 155 L200 285 L200 280 L400 150 Z" fill="#001a57"/>
  <!-- Tassel -->
  <path d="M400 164 L410 230 L390 230 Z" fill="#001a57"/>
  <circle cx="400" cy="245" r="10" fill="#001a57"/>
  
  <!-- Question mark -->
  <path d="M400 420 C350 420 320 380 350 350 C380 320 450 320 480 350 C510 380 480 420 430 420" stroke="#3182CE" stroke-width="40" fill="none" stroke-linecap="round"/>
  <path d="M400 420 C450 420 480 380 450 350 C420 320 350 320 320 350 C290 380 320 420 370 420" stroke="#4FD1C5" stroke-width="40" fill="none" stroke-linecap="round"/>
  <circle cx="400" cy="500" r="25" fill="#4FD1C5"/>
</svg> 