<?xml version="1.0" encoding="UTF-8"?>
<svg xmlns="http://www.w3.org/2000/svg" width="800" height="800" viewBox="0 0 800 800">
  <rect width="800" height="800" fill="#FFF9F5"/>
  
  <!-- Atom symbols -->
  <g fill="#FCDECD">
    <circle cx="70" cy="70" r="10"/>
    <ellipse cx="70" cy="70" rx="22" ry="8" transform="rotate(45 70 70)" fill="none" stroke="#FCDECD" stroke-width="1"/>
    <ellipse cx="70" cy="70" rx="22" ry="8" transform="rotate(-45 70 70)" fill="none" stroke="#FCDECD" stroke-width="1"/>
    <ellipse cx="70" cy="70" rx="22" ry="8" transform="rotate(0 70 70)" fill="none" stroke="#FCDECD" stroke-width="1"/>
    
    <circle cx="350" cy="220" r="10"/>
    <ellipse cx="350" cy="220" rx="22" ry="8" transform="rotate(45 350 220)" fill="none" stroke="#FCDECD" stroke-width="1"/>
    <ellipse cx="350" cy="220" rx="22" ry="8" transform="rotate(-45 350 220)" fill="none" stroke="#FCDECD" stroke-width="1"/>
    <ellipse cx="350" cy="220" rx="22" ry="8" transform="rotate(0 350 220)" fill="none" stroke="#FCDECD" stroke-width="1"/>
    
    <circle cx="170" cy="480" r="10"/>
    <ellipse cx="170" cy="480" rx="22" ry="8" transform="rotate(45 170 480)" fill="none" stroke="#FCDECD" stroke-width="1"/>
    <ellipse cx="170" cy="480" rx="22" ry="8" transform="rotate(-45 170 480)" fill="none" stroke="#FCDECD" stroke-width="1"/>
    <ellipse cx="170" cy="480" rx="22" ry="8" transform="rotate(0 170 480)" fill="none" stroke="#FCDECD" stroke-width="1"/>
    
    <circle cx="600" cy="300" r="10"/>
    <ellipse cx="600" cy="300" rx="22" ry="8" transform="rotate(45 600 300)" fill="none" stroke="#FCDECD" stroke-width="1"/>
    <ellipse cx="600" cy="300" rx="22" ry="8" transform="rotate(-45 600 300)" fill="none" stroke="#FCDECD" stroke-width="1"/>
    <ellipse cx="600" cy="300" rx="22" ry="8" transform="rotate(0 600 300)" fill="none" stroke="#FCDECD" stroke-width="1"/>
  </g>
  
  <!-- Books -->
  <g fill="#FCDECD">
    <rect x="150" y="80" width="40" height="30" rx="2"/>
    <line x1="170" y1="80" x2="170" y2="110" stroke="#FFF5EF" stroke-width="2"/>
    
    <rect x="480" y="150" width="40" height="30" rx="2"/>
    <line x1="500" y1="150" x2="500" y2="180" stroke="#FFF5EF" stroke-width="2"/>
    
    <rect x="280" y="350" width="40" height="30" rx="2"/>
    <line x1="300" y1="350" x2="300" y2="380" stroke="#FFF5EF" stroke-width="2"/>
    
    <rect x="560" y="470" width="40" height="30" rx="2"/>
    <line x1="580" y1="470" x2="580" y2="500" stroke="#FFF5EF" stroke-width="2"/>
  </g>
  
  <!-- Microscopes -->
  <path fill="#FCDECD" d="M210 200 h10 v30 h-10 z M200 230 h30 v10 h-30 z M205 240 h20 v15 h-20 z"/>
  <path fill="#FCDECD" d="M460 380 h10 v30 h-10 z M450 410 h30 v10 h-30 z M455 420 h20 v15 h-20 z"/>
  
  <!-- Rulers -->
  <g stroke="#FCDECD" stroke-width="1">
    <line x1="100" y1="300" x2="180" y2="300"/>
    <line x1="110" y1="295" x2="110" y2="305"/>
    <line x1="120" y1="295" x2="120" y2="305"/>
    <line x1="130" y1="295" x2="130" y2="305"/>
    <line x1="140" y1="295" x2="140" y2="305"/>
    <line x1="150" y1="295" x2="150" y2="305"/>
    <line x1="160" y1="295" x2="160" y2="305"/>
    <line x1="170" y1="295" x2="170" y2="305"/>
    
    <line x1="450" y1="250" x2="530" y2="250"/>
    <line x1="460" y1="245" x2="460" y2="255"/>
    <line x1="470" y1="245" x2="470" y2="255"/>
    <line x1="480" y1="245" x2="480" y2="255"/>
    <line x1="490" y1="245" x2="490" y2="255"/>
    <line x1="500" y1="245" x2="500" y2="255"/>
    <line x1="510" y1="245" x2="510" y2="255"/>
    <line x1="520" y1="245" x2="520" y2="255"/>
  </g>
  
  <!-- Stars -->
  <g fill="#FCDECD">
    <path d="M30 350 L33 340 L40 338 L33 336 L30 326 L27 336 L20 338 L27 340 Z"/>
    <path d="M350 50 L353 40 L360 38 L353 36 L350 26 L347 36 L340 38 L347 40 Z"/>
    <path d="M180 380 L183 370 L190 368 L183 366 L180 356 L177 366 L170 368 L177 370 Z"/>
    <path d="M400 710 L403 700 L410 698 L403 696 L400 686 L397 696 L390 698 L397 700 Z"/>
    <path d="M550 150 L553 140 L560 138 L553 136 L550 126 L547 136 L540 138 L547 140 Z"/>
    <path d="M620 480 L623 470 L630 468 L623 466 L620 456 L617 466 L610 468 L617 470 Z"/>
  </g>
  
  <!-- Flasks -->
  <g fill="#FCDECD">
    <path d="M360 120 L370 120 L370 135 L375 150 L355 150 L360 135 Z"/>
    <path d="M100 420 L110 420 L110 435 L115 450 L95 450 L100 435 Z"/>
    <path d="M510 520 L520 520 L520 535 L525 550 L505 550 L510 535 Z"/>
  </g>
  
  <!-- Text "JD Editions" -->
  <g fill="#FCDECD" font-family="Arial, sans-serif" font-style="italic" font-weight="bold">
    <text x="50" y="150" font-size="14">JD Editions</text>
    <text x="200" y="50" font-size="14">JD Editions</text>
    <text x="400" y="180" font-size="14">JD Editions</text>
    <text x="120" y="250" font-size="14">JD Editions</text>
    <text x="250" y="300" font-size="14">JD Editions</text>
    <text x="30" y="350" font-size="14">JD Editions</text>
    <text x="350" y="450" font-size="14">JD Editions</text>
    <text x="480" y="300" font-size="14">JD Editions</text>
    <text x="520" y="580" font-size="14">JD Editions</text>
    <text x="180" y="580" font-size="14">JD Editions</text>
    <text x="680" y="380" font-size="14">JD Editions</text>
    <text x="650" y="200" font-size="14">JD Editions</text>
  </g>
  
  <!-- Triangles -->
  <g fill="#FCDECD">
    <path d="M250 400 L280 400 L265 370 Z"/>
    <path d="M600 580 L630 580 L615 550 Z"/>
    <path d="M80 200 L110 200 L95 170 Z"/>
    <path d="M430 670 L460 670 L445 640 Z"/>
  </g>
</svg> 